<svg xmlns="http://www.w3.org/2000/svg" width="109" height="109" viewBox="0 0 109 109">
<g id="kvg:StrokePaths_07518-Kaisho" style="fill:none;stroke:#000000;stroke-width:3;stroke-linecap:round;stroke-linejoin:round;">
<g id="kvg:07518-Kaisho">
	<g id="kvg:07518-Kaisho-g1">
		<g id="kvg:07518-Kaisho-g2">
			<path id="kvg:07518-Kaisho-s1" d="M13.75,39.7c1.52,0.54,4.31,0.68,5.82,0.54c11.18-0.99,51.68-5.49,69.61-5.73c2.53-0.03,4.05,0.26,5.31,0.53"/>
			<path id="kvg:07518-Kaisho-s2" d="M34.37,19.75c1.09,0.5,1.74,2.25,1.96,3.25c0.22,1,0,66.75-0.22,73"/>
		</g>
		<path id="kvg:07518-Kaisho-s3" d="M70.37,14.25c1.09,0.5,1.74,2.25,1.96,3.25c0.22,1,0,71.25-0.22,77.5"/>
	</g>
	<path id="kvg:07518-Kaisho-s4" d="M37,61.75c5.85-0.69,11.73-1.16,17.59-1.69c1.91-0.17,3.82-0.34,5.62-0.5"/>
	<g id="kvg:07518-Kaisho-g3">
		<path id="kvg:07518-Kaisho-s5" d="M37,89.75c6.5-0.25,28-1.75,34-2"/>
	</g>
</g>
</g>

</svg>