<svg xmlns="http://www.w3.org/2000/svg" width="109" height="109" viewBox="0 0 109 109">
<g id="kvg:StrokePaths_07a1f-Kaisho" style="fill:none;stroke:#000000;stroke-width:3;stroke-linecap:round;stroke-linejoin:round;">
<g id="kvg:07a1f-Kaisho">
	<g id="kvg:07a1f-Kaisho-g1">
		<g id="kvg:07a1f-Kaisho-g2">
			<path id="kvg:07a1f-Kaisho-s1" d="M49.84,7.5c1.91,1.5,4.66,3.75,5.61,6.24"/>
			<path id="kvg:07a1f-Kaisho-s2" d="M20.67,19.21c1.67,0.33,3.13,0.6,5.05,0.46c12.53-0.92,43.91-2.5,57.2-3.17c1.96-0.1,2.96,0.04,4.41,0.58"/>
		</g>
		<g id="kvg:07a1f-Kaisho-g3">
			<g id="kvg:07a1f-Kaisho-g4">
				<path id="kvg:07a1f-Kaisho-s3" d="M28.41,26.8c0.7,0.63,0.81,1.31,0.95,2.11c0.98,5.41,2.85,13.25,4.28,23.84"/>
				<path id="kvg:07a1f-Kaisho-s4" d="M30.5,27.61c12.63-0.7,39.7-3.11,48.15-3.11c1.93,0,2.67,1.06,2.45,2.33c-1.05,6.04-1.95,15.28-4.05,23.44"/>
			</g>
			<g id="kvg:07a1f-Kaisho-g5">
				<path id="kvg:07a1f-Kaisho-s5" d="M43.07,34.3c0.21,0.17,0.42,0.31,0.51,0.51c0.72,1.65,1.95,7.28,2.57,10.25"/>
				<path id="kvg:07a1f-Kaisho-s6" d="M44.37,35c4.25-0.86,17.42-1.81,19.85-2.03c0.89-0.08,1.43,0.47,1.3,0.94c-0.53,1.93-1.14,4.76-1.93,7.43"/>
				<path id="kvg:07a1f-Kaisho-s7" d="M45.78,42.9c3.08-0.42,14.78-0.95,18.7-1.33"/>
			</g>
			<g id="kvg:07a1f-Kaisho-g6">
				<path id="kvg:07a1f-Kaisho-s8" d="M34.31,51.48c11.69-0.73,29.92-1.82,42.24-2.41"/>
			</g>
		</g>
	</g>
	<g id="kvg:07a1f-Kaisho-g7">
		<g id="kvg:07a1f-Kaisho-g8">
			<path id="kvg:07a1f-Kaisho-s9" d="M73.01,55c0.12,0.22,0.25,0.56-0.24,0.87c-2.88,1.85-19.41,5.9-42.02,8.38"/>
		</g>
		<g id="kvg:07a1f-Kaisho-g9">
			<path id="kvg:07a1f-Kaisho-s10" d="M17.25,75c0.75,0.23,3.76,0.84,5.75,0.68c9-0.68,48.75-3.43,64-4.07c2-0.08,4.5,0.27,5.75,0.5"/>
			<path id="kvg:07a1f-Kaisho-s11" d="M52.71,64c0.89,0.46,1.42,2.05,1.6,2.97s-0.18,25.07-0.18,30.78c0,9-3.89,2.5-5.39,1"/>
			<path id="kvg:07a1f-Kaisho-s12" d="M44.75,80.68c-4.2,6.08-10.56,12.46-18,16.32"/>
			<path id="kvg:07a1f-Kaisho-s13" d="M62.75,79.71c4.87,2.38,16.57,13.39,19.11,18.66"/>
		</g>
	</g>
</g>
</g>

</svg>